<svg width="58" height="24" viewBox="0 0 58 24" fill="none" xmlns="http://www.w3.org/2000/svg">
<path d="M5.70312 15.5469C5.57292 15.5208 5.45573 15.5078 5.35156 15.5078C5.29948 15.5078 5.16927 15.7031 4.96094 16.0938C4.7526 16.4583 4.50521 16.888 4.21875 17.3828C3.95833 17.8516 3.69792 18.3333 3.4375 18.8281C3.17708 19.2969 2.98177 19.6354 2.85156 19.8438C2.4349 20.3385 1.96615 20.5859 1.44531 20.5859C1.05469 20.5859 0.716146 20.4557 0.429688 20.1953C0.143229 19.9089 0 19.5052 0 18.9844C0 18.776 0.0130208 18.6068 0.0390625 18.4766C0.898438 16.9661 1.71875 15.4818 2.5 14.0234C3.28125 12.5651 4.08854 11.1198 4.92188 9.6875C5.78125 8.25521 6.67969 6.86198 7.61719 5.50781C8.55469 4.1276 9.60938 2.78646 10.7812 1.48438C10.9635 1.27604 11.1589 1.14583 11.3672 1.09375C11.5755 1.01562 11.7708 0.963542 11.9531 0.9375C12.3438 0.9375 12.6693 1.08073 12.9297 1.36719C13.2161 1.65365 13.3854 2.00521 13.4375 2.42188C13.3594 2.70833 13.2682 2.90365 13.1641 3.00781L13.4766 2.85156C13.8151 2.85156 14.1667 2.94271 14.5312 3.125C14.9219 3.30729 15.1953 3.65885 15.3516 4.17969C15.5599 5.63802 15.8073 7.05729 16.0938 8.4375C16.3802 9.79167 16.6536 11.1589 16.9141 12.5391C17.2005 13.8932 17.4479 15.2604 17.6562 16.6406C17.8906 18.0208 18.0339 19.4531 18.0859 20.9375C18.0859 21.4583 17.9297 21.862 17.6172 22.1484C17.3047 22.4089 16.9661 22.5391 16.6016 22.5391C16.2109 22.5391 15.8333 22.4219 15.4688 22.1875C15.1302 21.9531 14.9349 21.5495 14.8828 20.9766C14.8307 19.1536 14.6745 17.4349 14.4141 15.8203C14.362 15.8724 14.2188 15.9115 13.9844 15.9375C12.5781 15.9375 11.1719 15.8724 9.76562 15.7422C8.38542 15.612 7.03125 15.5469 5.70312 15.5469ZM7.07031 12.4219C8.00781 12.474 9.10156 12.5391 10.3516 12.6172C11.6016 12.6953 12.7474 12.7344 13.7891 12.7344H13.8281L13.7891 12.5391C13.7109 12.2786 13.6198 11.901 13.5156 11.4062C13.4115 10.9115 13.2943 10.3776 13.1641 9.80469C13.0599 9.23177 12.9427 8.64583 12.8125 8.04688C12.7083 7.42188 12.6042 6.86198 12.5 6.36719C12.3958 5.8724 12.3047 5.46875 12.2266 5.15625C12.1745 4.84375 12.1484 4.6875 12.1484 4.6875C11.9141 4.89583 11.5885 5.27344 11.1719 5.82031C10.8073 6.28906 10.3385 6.97917 9.76562 7.89062C9.19271 8.77604 8.47656 9.98698 7.61719 11.5234L7.07031 12.4219ZM31.9531 4.17969C31.875 6.96615 31.8359 9.84375 31.8359 12.8125V21.9531C31.8359 22.4219 31.6667 22.7995 31.3281 23.0859C31.0156 23.3724 30.6771 23.5156 30.3125 23.5156C29.9479 23.5156 29.5833 23.3854 29.2188 23.125C28.8802 22.8906 28.6849 22.474 28.6328 21.875V12.8906C28.6328 10 28.6719 7.20052 28.75 4.49219C27.5 4.6224 26.3802 4.73958 25.3906 4.84375C24.401 4.92188 23.5286 5.01302 22.7734 5.11719C22.2526 5.0651 21.849 4.88281 21.5625 4.57031C21.3021 4.25781 21.1719 3.88021 21.1719 3.4375C21.1719 2.94271 21.4062 2.5651 21.875 2.30469C22.3438 2.04427 22.9688 1.84896 23.75 1.71875C24.5312 1.5625 25.4297 1.45833 26.4453 1.40625C27.487 1.35417 28.5807 1.27604 29.7266 1.17188C31.3151 1.04167 32.7214 0.9375 33.9453 0.859375C35.1693 0.78125 36.224 0.742188 37.1094 0.742188C38.0469 1.08073 38.5156 1.60156 38.5156 2.30469C38.4375 2.85156 38.2031 3.24219 37.8125 3.47656C37.4479 3.71094 36.9661 3.86719 36.3672 3.94531C35.7943 4.02344 35.1302 4.0625 34.375 4.0625C33.6198 4.0625 32.8125 4.10156 31.9531 4.17969ZM43.4375 22.7734C43.2031 22.4609 43.0078 22.0833 42.8516 21.6406C42.7214 21.1979 42.6172 20.7292 42.5391 20.2344C42.4609 19.7396 42.3958 19.2318 42.3438 18.7109C42.3177 18.1901 42.2917 17.6953 42.2656 17.2266L42.0312 12.5391C41.9531 11.7839 41.888 11.2109 41.8359 10.8203C41.8099 10.4297 41.7708 10.0391 41.7188 9.64844C41.6927 9.23177 41.6667 8.73698 41.6406 8.16406C41.6406 7.5651 41.6406 6.69271 41.6406 5.54688C41.6406 5.15625 41.6276 4.77865 41.6016 4.41406C41.6016 4.04948 41.6016 3.6849 41.6016 3.32031C41.6016 2.38281 41.8359 1.74479 42.3047 1.40625C42.7995 1.04167 43.4245 0.859375 44.1797 0.859375C44.6224 0.859375 45.0911 0.885417 45.5859 0.9375C46.0807 0.963542 46.5755 0.976562 47.0703 0.976562C47.9818 0.976562 48.8802 0.859375 49.7656 0.625C50.651 0.364583 51.5104 0.15625 52.3438 0C52.8646 0 53.3073 0.143229 53.6719 0.429688C54.0365 0.690104 54.2188 1.01562 54.2188 1.40625C54.2188 1.77083 54.1016 2.13542 53.8672 2.5C53.6328 2.83854 53.2552 3.0599 52.7344 3.16406C51.7188 3.3724 50.6771 3.60677 49.6094 3.86719C48.5417 4.1276 47.4609 4.25781 46.3672 4.25781C46.0807 4.25781 45.7943 4.25781 45.5078 4.25781C45.2214 4.25781 44.974 4.23177 44.7656 4.17969C44.7917 5.16927 44.8177 6.11979 44.8438 7.03125C44.8698 7.94271 44.9089 8.82812 44.9609 9.6875H45C46.9792 9.47917 48.8411 9.36198 50.5859 9.33594C52.3307 9.28385 54.1797 9.25781 56.1328 9.25781C57.0964 9.51823 57.5781 10.0521 57.5781 10.8594C57.5781 11.224 57.4349 11.5625 57.1484 11.875C56.888 12.1615 56.5234 12.3438 56.0547 12.4219C55.8464 12.4219 55.4297 12.4219 54.8047 12.4219C54.2057 12.4219 53.5026 12.4349 52.6953 12.4609C51.888 12.4609 51.0417 12.474 50.1562 12.5C49.2708 12.5 48.4505 12.526 47.6953 12.5781C46.9661 12.6042 46.3542 12.6432 45.8594 12.6953C45.3906 12.7474 45.1562 12.8125 45.1562 12.8906C45.1562 14.0625 45.2214 15.2344 45.3516 16.4062C45.5078 17.5521 45.638 18.6849 45.7422 19.8047C46.4453 19.5443 47.2135 19.3229 48.0469 19.1406C48.8802 18.9323 49.7396 18.776 50.625 18.6719C51.5365 18.5677 52.4609 18.4896 53.3984 18.4375C54.3359 18.3854 55.2474 18.3594 56.1328 18.3594C56.6536 18.5677 57.0182 18.8151 57.2266 19.1016C57.4609 19.362 57.5781 19.6615 57.5781 20C57.5781 20.3646 57.4349 20.7031 57.1484 21.0156C56.888 21.3021 56.5234 21.4844 56.0547 21.5625C54.8568 21.5625 53.6068 21.6536 52.3047 21.8359C51.0026 21.9922 49.7917 22.1875 48.6719 22.4219C47.5781 22.6302 46.6406 22.8125 45.8594 22.9688C45.0781 23.151 44.6094 23.2422 44.4531 23.2422C44.3229 23.2422 44.1667 23.1901 43.9844 23.0859C43.8281 23.0078 43.6458 22.9036 43.4375 22.7734Z" fill="white"/>
</svg>
