<svg width="66" height="59" viewBox="0 0 66 59" fill="none" xmlns="http://www.w3.org/2000/svg">
<path d="M13.125 48V44.1562H20.7188C22.8281 44.1562 24.5 43.6328 25.7344 42.5859C26.9844 41.5391 27.6094 40.0781 27.6094 38.2031C27.6094 36.3281 26.9375 34.875 25.5938 33.8438C24.2656 32.8125 22.4375 32.2969 20.1094 32.2969H12.5625V28.5469H18.7969C20.0781 28.5469 21.1875 28.2969 22.125 27.7969C23.0781 27.2969 23.8125 26.6094 24.3281 25.7344C24.8594 24.8594 25.125 23.8594 25.125 22.7344C25.125 20.9531 24.5234 19.6016 23.3203 18.6797C22.1328 17.7578 20.5312 17.2969 18.5156 17.2969H12.5625V13.4531H18.3281C20.5625 13.4531 22.5 13.8281 24.1406 14.5781C25.7969 15.3125 27.0781 16.3359 27.9844 17.6484C28.8906 18.9609 29.3438 20.4688 29.3438 22.1719C29.3438 23.4219 29.1016 24.6094 28.6172 25.7344C28.1328 26.8438 27.4844 27.8125 26.6719 28.6406C25.8594 29.4688 24.9531 30.0625 23.9531 30.4219V29.3906C25.5938 29.7656 27 30.3672 28.1719 31.1953C29.3594 32.0078 30.2656 33.0234 30.8906 34.2422C31.5156 35.4453 31.8281 36.8281 31.8281 38.3906C31.8281 40.2969 31.3594 41.9766 30.4219 43.4297C29.4844 44.8672 28.1641 45.9922 26.4609 46.8047C24.7578 47.6016 22.75 48 20.4375 48H13.125ZM9.375 48V13.4531H13.5V48H9.375ZM48.2344 48.375C45.9062 48.375 43.8359 47.8516 42.0234 46.8047C40.2266 45.7422 38.8125 44.25 37.7812 42.3281C36.75 40.4062 36.2344 38.1406 36.2344 35.5312C36.2344 32.9375 36.7344 30.6875 37.7344 28.7812C38.7344 26.875 40.0938 25.3984 41.8125 24.3516C43.5469 23.3047 45.5 22.7812 47.6719 22.7812C49.8125 22.7812 51.7031 23.2734 53.3438 24.2578C54.9844 25.2266 56.2656 26.5703 57.1875 28.2891C58.125 30.0078 58.5938 31.9688 58.5938 34.1719C58.5938 34.8438 58.5547 35.4453 58.4766 35.9766C58.4141 36.5078 58.3594 36.9062 58.3125 37.1719H39.2812V33.8906H54.6562C54.6562 32.5469 54.375 31.3203 53.8125 30.2109C53.25 29.0859 52.4453 28.1953 51.3984 27.5391C50.3516 26.8672 49.1094 26.5312 47.6719 26.5312C46.2031 26.5312 44.9062 26.9062 43.7812 27.6562C42.6562 28.4062 41.7734 29.4609 41.1328 30.8203C40.4922 32.1641 40.1719 33.7344 40.1719 35.5312C40.1719 37.3438 40.5078 38.9375 41.1797 40.3125C41.8516 41.6719 42.8047 42.7344 44.0391 43.5C45.2734 44.25 46.7344 44.625 48.4219 44.625C49.4219 44.625 50.3281 44.5 51.1406 44.25C51.9688 43.9844 52.6953 43.6641 53.3203 43.2891C53.9609 42.8984 54.5 42.5156 54.9375 42.1406L56.4844 45.7969C55.5312 46.5 54.3359 47.1094 52.8984 47.625C51.4766 48.125 49.9219 48.375 48.2344 48.375Z" fill="white"/>
<line x1="39" y1="14.5" x2="57" y2="14.5" stroke="white" stroke-width="3"/>
</svg>
