<svg width="52" height="52" viewBox="0 0 52 52" fill="none" xmlns="http://www.w3.org/2000/svg">
<path d="M41.1667 8.66663H10.8333C8.4401 8.66663 6.5 10.6067 6.5 13V43.3333C6.5 45.7265 8.4401 47.6666 10.8333 47.6666H41.1667C43.5599 47.6666 45.5 45.7265 45.5 43.3333V13C45.5 10.6067 43.5599 8.66663 41.1667 8.66663Z" stroke="white" stroke-width="4" stroke-linecap="round" stroke-linejoin="round"/>
<path d="M34.667 4.33337V13" stroke="white" stroke-width="4" stroke-linecap="round" stroke-linejoin="round"/>
<path d="M17.333 4.33337V13" stroke="white" stroke-width="4" stroke-linecap="round" stroke-linejoin="round"/>
<path d="M6.5 21.6666H45.5" stroke="white" stroke-width="4" stroke-linecap="round" stroke-linejoin="round"/>
<path d="M14.1768 30.2021H21.5596V32.7314H19.3867V38H16.3496V32.7314H14.1768V30.2021ZM25.4658 38H22.4287V30.2021H25.4658V38ZM26.6572 30.2021H27.7754L31.5449 33.7422L35.417 30.2021H36.4961V38H33.2881V35.4707L31.2959 37.6582L29.3574 35.5293V38H26.6572V30.2021Z" fill="white"/>
</svg>
