<svg width="52" height="52" viewBox="0 0 52 52" fill="none" xmlns="http://www.w3.org/2000/svg">
<path d="M41.1667 8.66663H10.8333C8.4401 8.66663 6.5 10.6067 6.5 13V43.3333C6.5 45.7265 8.4401 47.6666 10.8333 47.6666H41.1667C43.5599 47.6666 45.5 45.7265 45.5 43.3333V13C45.5 10.6067 43.5599 8.66663 41.1667 8.66663Z" stroke="white" stroke-width="4" stroke-linecap="round" stroke-linejoin="round"/>
<path d="M34.667 4.33337V13" stroke="white" stroke-width="4" stroke-linecap="round" stroke-linejoin="round"/>
<path d="M17.333 4.33337V13" stroke="white" stroke-width="4" stroke-linecap="round" stroke-linejoin="round"/>
<path d="M6.5 21.6666H45.5" stroke="white" stroke-width="4" stroke-linecap="round" stroke-linejoin="round"/>
<path d="M18.5 31.5L26 25.6666L33.5 31.5V40.6666C33.5 41.1087 33.3244 41.5326 33.0118 41.8451C32.6993 42.1577 32.2754 42.3333 31.8333 42.3333H20.1667C19.7246 42.3333 19.3007 42.1577 18.9882 41.8451C18.6756 41.5326 18.5 41.1087 18.5 40.6666V31.5Z" stroke="white" stroke-width="2" stroke-linecap="round" stroke-linejoin="round"/>
<path d="M23.5 42.3333V34H28.5V42.3333" stroke="white" stroke-width="2" stroke-linecap="round" stroke-linejoin="round"/>
</svg>
