<svg width="52" height="52" viewBox="0 0 52 52" fill="none" xmlns="http://www.w3.org/2000/svg">
<path d="M34.667 8.66663H39.0003C40.1496 8.66663 41.2518 9.12317 42.0645 9.93583C42.8771 10.7485 43.3337 11.8507 43.3337 13V43.3333C43.3337 44.4826 42.8771 45.5848 42.0645 46.3974C41.2518 47.2101 40.1496 47.6666 39.0003 47.6666H13.0003C11.8511 47.6666 10.7489 47.2101 9.9362 46.3974C9.12354 45.5848 8.66699 44.4826 8.66699 43.3333V13C8.66699 11.8507 9.12354 10.7485 9.9362 9.93583C10.7489 9.12317 11.8511 8.66663 13.0003 8.66663H17.3337" stroke="white" stroke-width="4" stroke-linecap="round" stroke-linejoin="round"/>
<path d="M32.4997 4.33337H19.4997C18.3031 4.33337 17.333 5.30342 17.333 6.50004V10.8334C17.333 12.03 18.3031 13 19.4997 13H32.4997C33.6963 13 34.6663 12.03 34.6663 10.8334V6.50004C34.6663 5.30342 33.6963 4.33337 32.4997 4.33337Z" stroke="white" stroke-width="4" stroke-linecap="round" stroke-linejoin="round"/>
<path d="M33 21L19 35" stroke="white" stroke-width="2" stroke-linecap="round" stroke-linejoin="round"/>
<path d="M20.5 25C21.8807 25 23 23.8807 23 22.5C23 21.1193 21.8807 20 20.5 20C19.1193 20 18 21.1193 18 22.5C18 23.8807 19.1193 25 20.5 25Z" stroke="white" stroke-width="2" stroke-linecap="round" stroke-linejoin="round"/>
<path d="M31.5 36C32.8807 36 34 34.8807 34 33.5C34 32.1193 32.8807 31 31.5 31C30.1193 31 29 32.1193 29 33.5C29 34.8807 30.1193 36 31.5 36Z" stroke="white" stroke-width="2" stroke-linecap="round" stroke-linejoin="round"/>
</svg>
