<svg width="52" height="52" viewBox="0 0 52 52" fill="none" xmlns="http://www.w3.org/2000/svg">
<path d="M36.833 4.33331H15.1663C9.18326 4.33331 4.33301 9.18356 4.33301 15.1666V36.8333C4.33301 42.8164 9.18326 47.6666 15.1663 47.6666H36.833C42.8161 47.6666 47.6663 42.8164 47.6663 36.8333V15.1666C47.6663 9.18356 42.8161 4.33331 36.833 4.33331Z" stroke="white" stroke-width="4" stroke-linecap="round" stroke-linejoin="round"/>
<path d="M34.6664 24.635C34.9338 26.4382 34.6258 28.2798 33.7862 29.8979C32.9466 31.516 31.6182 32.8281 29.9899 33.6477C28.3616 34.4672 26.5163 34.7525 24.7166 34.4629C22.9168 34.1733 21.2542 33.3236 19.9652 32.0346C18.6762 30.7456 17.8264 29.0829 17.5368 27.2832C17.2472 25.4834 17.5325 23.6381 18.3521 22.0099C19.1716 20.3816 20.4838 19.0531 22.1018 18.2136C23.7199 17.374 25.5615 17.066 27.3647 17.3334C29.204 17.6061 30.9069 18.4632 32.2217 19.778C33.5365 21.0929 34.3936 22.7957 34.6664 24.635Z" stroke="white" stroke-width="5" stroke-linecap="round" stroke-linejoin="round"/>
<path d="M37.917 14.0834H37.9392" stroke="white" stroke-width="3" stroke-linecap="round" stroke-linejoin="round"/>
</svg>
