<svg width="52" height="52" viewBox="0 0 52 52" fill="none" xmlns="http://www.w3.org/2000/svg">
<path d="M34.667 17.3334C38.1148 17.3334 41.4214 18.703 43.8594 21.141C46.2974 23.579 47.667 26.8856 47.667 30.3334V45.5H39.0003V30.3334C39.0003 29.1841 38.5438 28.0819 37.7311 27.2692C36.9185 26.4566 35.8163 26 34.667 26C33.5177 26 32.4155 26.4566 31.6029 27.2692C30.7902 28.0819 30.3337 29.1841 30.3337 30.3334V45.5H21.667V30.3334C21.667 26.8856 23.0366 23.579 25.4746 21.141C27.9126 18.703 31.2192 17.3334 34.667 17.3334Z" stroke="white" stroke-width="4" stroke-linecap="round" stroke-linejoin="round"/>
<path d="M12.9997 19.5H4.33301V45.5H12.9997V19.5Z" stroke="white" stroke-width="4" stroke-linecap="round" stroke-linejoin="round"/>
<path d="M8.66634 13C11.0596 13 12.9997 11.0599 12.9997 8.66671C12.9997 6.27347 11.0596 4.33337 8.66634 4.33337C6.27311 4.33337 4.33301 6.27347 4.33301 8.66671C4.33301 11.0599 6.27311 13 8.66634 13Z" stroke="white" stroke-width="4" stroke-linecap="round" stroke-linejoin="round"/>
</svg>
