<svg width="69" height="67" viewBox="0 0 69 67" fill="none" xmlns="http://www.w3.org/2000/svg">
<path d="M66.0837 49.5H36.917" stroke="white" stroke-width="4" stroke-linecap="round" stroke-linejoin="round"/>
<path d="M41.9482 39.4521L36.917 49.5V58.25C36.917 59.0236 37.2243 59.7655 37.7713 60.3124C38.3182 60.8594 39.0601 61.1667 39.8337 61.1667H63.167C63.9405 61.1667 64.6824 60.8594 65.2294 60.3124C65.7764 59.7655 66.0837 59.0236 66.0837 58.25V49.5L61.0524 39.4521C60.8109 38.9662 60.4387 38.5572 59.9776 38.2713C59.5164 37.9853 58.9846 37.8337 58.442 37.8334H44.5587C44.016 37.8337 43.4843 37.9853 43.0231 38.2713C42.5619 38.5572 42.1897 38.9662 41.9482 39.4521Z" stroke="white" stroke-width="4" stroke-linecap="round" stroke-linejoin="round"/>
<path d="M42.75 55.3334H42.7635" stroke="white" stroke-width="4" stroke-linecap="round" stroke-linejoin="round"/>
<path d="M48.583 55.3334H48.5965" stroke="white" stroke-width="4" stroke-linecap="round" stroke-linejoin="round"/>
<g clip-path="url(#clip0_246_256)">
<path d="M33.5413 27.7083C33.5413 28.4819 33.2341 29.2237 32.6871 29.7707C32.1401 30.3177 31.3982 30.625 30.6247 30.625H4.37467C3.60113 30.625 2.85926 30.3177 2.31228 29.7707C1.7653 29.2237 1.45801 28.4819 1.45801 27.7083V11.6667C1.45801 10.8931 1.7653 10.1513 2.31228 9.60427C2.85926 9.05729 3.60113 8.75 4.37467 8.75H10.208L13.1247 4.375H21.8747L24.7913 8.75H30.6247C31.3982 8.75 32.1401 9.05729 32.6871 9.60427C33.2341 10.1513 33.5413 10.8931 33.5413 11.6667V27.7083Z" stroke="white" stroke-width="4" stroke-linecap="round" stroke-linejoin="round"/>
<path d="M17.5003 24.7917C20.722 24.7917 23.3337 22.18 23.3337 18.9583C23.3337 15.7367 20.722 13.125 17.5003 13.125C14.2787 13.125 11.667 15.7367 11.667 18.9583C11.667 22.18 14.2787 24.7917 17.5003 24.7917Z" stroke="white" stroke-width="4" stroke-linecap="round" stroke-linejoin="round"/>
</g>
<defs>
<clipPath id="clip0_246_256">
<rect width="35" height="35" fill="white"/>
</clipPath>
</defs>
</svg>
