<svg width="66" height="66" viewBox="0 0 66 66" fill="none" xmlns="http://www.w3.org/2000/svg">
<path d="M33.5001 49.5C32.5599 62.3725 21.2158 66.5926 14.0001 61C6.78431 55.4074 9.60728 42.9912 21.0001 40.5" stroke="white" stroke-width="4"/>
<path d="M32.9999 49.5C33.9401 62.3725 45.2842 66.5926 52.4999 61C59.7157 55.4074 56.8927 42.9912 45.4999 40.5" stroke="white" stroke-width="4"/>
<path d="M44.3586 40.1258C56.6628 44.0232 64.7867 35.051 62.2665 26.2764C59.7464 17.5018 47.1681 15.5222 40.6321 25.1804" stroke="white" stroke-width="4"/>
<path d="M21.6219 40.1258C9.31766 44.0232 1.19382 35.051 3.71394 26.2764C6.23406 17.5018 18.8123 15.5222 25.3484 25.1804" stroke="white" stroke-width="4"/>
<path d="M25.5058 25.3542C18.3834 14.5906 24.7837 4.31761 33.913 4.3347C43.0423 4.35179 48.3955 15.9049 40.9001 24.8391" stroke="white" stroke-width="4"/>
<circle cx="33" cy="35" r="9" stroke="white" stroke-width="4"/>
</svg>
