<svg width="52" height="52" viewBox="0 0 52 52" fill="none" xmlns="http://www.w3.org/2000/svg">
<path d="M43.6667 46V41.6667C43.6667 39.3681 42.7536 37.1637 41.1283 35.5384C39.5029 33.9131 37.2985 33 35 33H17.6667C15.3681 33 13.1637 33.9131 11.5384 35.5384C9.91309 37.1637 9 39.3681 9 41.6667V46" stroke="white" stroke-width="4" stroke-linecap="round" stroke-linejoin="round"/>
<path d="M26.3337 24.3333C31.1201 24.3333 35.0003 20.4531 35.0003 15.6667C35.0003 10.8802 31.1201 7 26.3337 7C21.5472 7 17.667 10.8802 17.667 15.6667C17.667 20.4531 21.5472 24.3333 26.3337 24.3333Z" stroke="white" stroke-width="4" stroke-linecap="round" stroke-linejoin="round"/>
<path d="M34.5 29H48V49H34.5C33.837 49 33.2011 48.7366 32.7322 48.2678C32.2634 47.7989 32 47.163 32 46.5V31.5C32 30.837 32.2634 30.2011 32.7322 29.7322C33.2011 29.2634 33.837 29 34.5 29Z" fill="#0D1220" stroke="white" stroke-width="2" stroke-linecap="round" stroke-linejoin="round"/>
<path d="M32 46.5C32 45.837 32.2634 45.2011 32.7322 44.7322C33.2011 44.2634 33.837 44 34.5 44H48" fill="#0D1220"/>
<path d="M32 46.5C32 45.837 32.2634 45.2011 32.7322 44.7322C33.2011 44.2634 33.837 44 34.5 44H48" stroke="white" stroke-width="2" stroke-linecap="round" stroke-linejoin="round"/>
<path d="M37.3262 37.7539C37.2936 37.7604 37.2643 37.7637 37.2383 37.7637L37.2969 38.6426C37.3099 38.8444 37.3197 39.0495 37.3262 39.2578C37.3327 39.4596 37.3359 39.6647 37.3359 39.873C37.3359 39.9837 37.2969 40.0749 37.2188 40.1465C37.1406 40.2181 37.0527 40.2539 36.9551 40.2539C36.8639 40.2539 36.7728 40.2214 36.6816 40.1562C36.597 40.0977 36.5482 40 36.5352 39.8633C36.5352 39.2578 36.5059 38.6458 36.4473 38.0273C36.3952 37.4023 36.3691 36.7904 36.3691 36.1914C36.3691 36.0742 36.3659 35.944 36.3594 35.8008C36.3594 35.651 36.3659 35.5078 36.3789 35.3711C36.3919 35.2279 36.4147 35.0977 36.4473 34.9805C36.4863 34.8568 36.5449 34.7624 36.623 34.6973C36.8509 34.5996 37.082 34.5215 37.3164 34.4629C37.5573 34.4043 37.8014 34.349 38.0488 34.2969C38.2962 34.2448 38.5469 34.196 38.8008 34.1504C39.0547 34.0983 39.3118 34.0332 39.5723 33.9551C39.7155 33.9551 39.8262 33.9909 39.9043 34.0625C39.9889 34.1341 40.0312 34.2253 40.0312 34.3359C40.0312 34.4922 39.9531 34.6257 39.7969 34.7363C39.5755 34.8014 39.3542 34.8568 39.1328 34.9023C38.918 34.9414 38.7031 34.9805 38.4883 35.0195C38.2734 35.0586 38.0586 35.1009 37.8438 35.1465C37.6354 35.1855 37.4238 35.2409 37.209 35.3125C37.196 35.4427 37.1862 35.5762 37.1797 35.7129C37.1732 35.8431 37.1699 35.9766 37.1699 36.1133V36.2793L37.1992 36.9531C37.6159 36.849 38.0586 36.7806 38.5273 36.748C39.0026 36.709 39.4779 36.6895 39.9531 36.6895C40.0638 36.7285 40.1517 36.7871 40.2168 36.8652C40.2819 36.9368 40.3145 37.015 40.3145 37.0996C40.3145 37.1973 40.2786 37.2786 40.207 37.3438C40.1354 37.4089 40.0443 37.4577 39.9336 37.4902C39.4844 37.4902 39.0449 37.5033 38.6152 37.5293C38.1855 37.5553 37.7559 37.6302 37.3262 37.7539ZM41.877 40.0488C41.877 40.1595 41.8346 40.2507 41.75 40.3223C41.6719 40.3939 41.5872 40.4297 41.4961 40.4297C41.4049 40.4297 41.3138 40.3971 41.2227 40.332C41.138 40.2734 41.0892 40.1758 41.0762 40.0391C41.0762 39.6029 41.0794 39.1699 41.0859 38.7402C41.099 38.3105 41.1055 37.8776 41.1055 37.4414C41.1055 37.3177 41.0957 37.1224 41.0762 36.8555C41.0632 36.582 41.0566 36.2988 41.0566 36.0059C41.0566 35.6934 41.0664 35.3874 41.0859 35.0879C41.112 34.7884 41.1706 34.528 41.2617 34.3066L41.3203 34.209L41.4277 34.1211C41.6035 34.056 41.7858 34.0234 41.9746 34.0234C42.2415 34.0234 42.528 34.0527 42.834 34.1113C43.14 34.1634 43.4232 34.2578 43.6836 34.3945C43.944 34.5312 44.1589 34.7168 44.3281 34.9512C44.5039 35.179 44.5918 35.472 44.5918 35.8301C44.5918 35.9993 44.5658 36.1556 44.5137 36.2988C44.4681 36.4421 44.4062 36.5723 44.3281 36.6895C44.2565 36.8066 44.1719 36.9108 44.0742 37.002C43.9831 37.0931 43.8919 37.168 43.8008 37.2266C43.612 37.3503 43.4036 37.4479 43.1758 37.5195C42.9479 37.5846 42.7103 37.6595 42.4629 37.7441L42.3457 37.7832C42.3327 37.7767 42.3262 37.7734 42.3262 37.7734C42.4824 37.8841 42.6289 38.0013 42.7656 38.125C42.9089 38.2422 43.0521 38.3594 43.1953 38.4766C43.3451 38.5938 43.498 38.7077 43.6543 38.8184C43.8171 38.9225 43.9928 39.0202 44.1816 39.1113C44.3053 39.2285 44.3672 39.3522 44.3672 39.4824C44.3672 39.5931 44.3281 39.6842 44.25 39.7559C44.1784 39.821 44.0905 39.8535 43.9863 39.8535C43.9082 39.8535 43.8171 39.8307 43.7129 39.7852C43.6087 39.7396 43.5013 39.6842 43.3906 39.6191C43.2799 39.5475 43.166 39.4727 43.0488 39.3945C42.9382 39.3164 42.834 39.2448 42.7363 39.1797C42.5671 39.069 42.4108 38.9551 42.2676 38.8379C42.1309 38.7207 42.0072 38.6068 41.8965 38.4961V38.7012C41.8965 38.916 41.89 39.1374 41.877 39.3652C41.8704 39.5866 41.8704 39.8145 41.877 40.0488ZM41.9062 37.0508C41.8932 37.0638 41.8867 37.0703 41.8867 37.0703C41.8802 37.0703 41.8965 37.0638 41.9355 37.0508C42.0788 37.0117 42.2546 36.9727 42.4629 36.9336C42.6777 36.888 42.8828 36.8262 43.0781 36.748C43.2734 36.6634 43.4395 36.5527 43.5762 36.416C43.7194 36.2728 43.791 36.0807 43.791 35.8398C43.791 35.6445 43.752 35.4915 43.6738 35.3809C43.6022 35.2702 43.5046 35.1855 43.3809 35.127C43.2637 35.0618 43.1302 35.0163 42.9805 34.9902C42.8307 34.9577 42.681 34.9251 42.5312 34.8926C42.4466 34.873 42.3522 34.8568 42.248 34.8438C42.1439 34.8242 42.056 34.8145 41.9844 34.8145C41.9583 34.8145 41.9388 34.8568 41.9258 34.9414C41.9128 35.0195 41.903 35.1139 41.8965 35.2246C41.8965 35.3353 41.8965 35.446 41.8965 35.5566C41.8965 35.6608 41.8965 35.7389 41.8965 35.791C41.8965 36.0319 41.8965 36.2598 41.8965 36.4746C41.903 36.6895 41.9062 36.8815 41.9062 37.0508Z" fill="white"/>
</svg>
